<svg width="1126.194" height="855" xmlns="http://www.w3.org/2000/svg">
 <title>code review</title>

 <g>
  <title>Layer 1</title>
  <g id="svg_102">
   <g transform="matrix(0.945835, 0, 0, 1.00938, -489.57, -1814.51)" id="svg_53" fill="#000000">
    <path id="svg_54" d="m706.57729,2311.70548c-50.8,-9.4 -53,-9.9 -55.3,-12.5c-2.3,-2.7 -2.3,-2.9 -2.3,-29.6l0,-27l-9.7,-4.9c-12.3,-6.2 -23.1,-13.7 -30.8,-21.5c-5.1,-5.2 -6.4,-7.2 -8.3,-13.3c-1.3,-3.9 -3.1,-12.9 -4.2,-20c-1.7,-11.6 -3.7,-19 -6.5,-23.4c-0.5,-0.9 -4.4,-3.8 -8.5,-6.5c-8.9,-5.8 -16.9,-13.6 -19.5,-18.9c-1,-2.2 -2,-7 -2.3,-10.8c-0.3,-5 -0.9,-7 -2.2,-7.7c-3.7,-2 -23.9,-28.9 -31.7,-42.4c-0.7,-1.1 -1.3,-5.1 -1.3,-8.8c0,-9.2 1.6,-10.8 10.4,-10.8l6.3,0l0.5,-8.3c1,-15.1 8.8,-30.3 23.7,-45.9c7.6,-8 10.8,-10.5 16.9,-13.6c7.6,-3.7 7.7,-3.7 20.1,-3.7c16.1,0 17.5,0.7 34.4,17.3l12.7,12.6l0,-13.6c0,-13.6 0,-13.7 2.6,-15.7c1.5,-1.2 4.1,-2.1 5.8,-2.1c1.7,0 28.4,4.7 59.4,10.3c48.9,9 56.6,10.6 58.5,12.5l2.2,2.3l0.2,155.2c0.2,123.8 0,155.7 -1,157.7c-2.4,4.8 -10.7,4 -70.1,-6.9zm61.8,-0.7c0.3,-0.9 0.6,-6.5 0.6,-12.5l0,-11l-15.7,-29.2c-8.6,-16.1 -15.8,-29.4 -15.9,-29.6c-0.2,-0.1 -6.8,1.9 -14.7,4.5l-14.4,4.9l19.3,35.5c10.7,19.5 19.8,35.6 20.3,35.8c1.7,0.6 15.6,3 17.7,3.1c1.2,0.1 2.5,-0.6 2.8,-1.5zm-36.4,-6.4c0,-0.5 -3.1,-6.5 -6.9,-13.2c-3.7,-6.8 -8.6,-15.6 -10.7,-19.7c-3.5,-6.6 -4.4,-7.6 -9.4,-10.1c-6.5,-3.2 -19.3,-7.8 -27,-9.5c-6.2,-1.4 -15.6,-4 -18.2,-5c-1.7,-0.7 -1.8,0.7 -1.8,21.1c0,12.1 0.4,22.5 0.8,23.1c0.9,1.4 5.6,2.4 42.7,9.3c28.1,5.2 30.5,5.5 30.5,4zm-12.8,-80.9l6.8,-2.3l-1.5,-2.8c-1.4,-2.6 -2,-2.8 -9.7,-3.5c-4.6,-0.3 -9,-0.9 -10,-1.1c-0.9,-0.3 -6.5,-9.8 -12.9,-22.3l-11.4,-21.8l-3.5,1.2c-1.9,0.7 -3.5,1.6 -3.5,2.1c0,0.5 6.8,13.3 15,28.5l15,27.7l4.5,-1.8c2.5,-0.9 7.5,-2.7 11.2,-3.9zm15.8,-15.4c-2.4,-4.1 -3.2,-4.4 -5,-2.2c-0.7,0.8 -0.8,1.5 -0.3,1.5c0.6,0 1.8,1.6 2.9,3.5c1.5,2.9 2.1,3.3 3.2,2.1c1.1,-1.1 1,-1.9 -0.8,-4.9zm-29,-21.4c-6.2,-10.3 -11.9,-19.9 -12.7,-21.2c-0.9,-1.4 -1.8,-2 -2.4,-1.4c-0.6,0.6 2.9,8.3 9.5,20.9c9.3,17.7 10.7,20 13.3,20.5c1.5,0.3 3,0.4 3.1,0.3c0.2,-0.2 -4.7,-8.7 -10.8,-19.1zm18.4,4.1c-2.3,-4.3 -3.2,-5 -4,-3c-0.8,2.2 3.5,9.1 4.9,7.7c0.7,-0.7 0.5,-2.1 -0.9,-4.7zm44.4,-92.7c0.3,-79.8 0.2,-84.5 -1.5,-86.5c-1.6,-1.9 -8.6,-3.4 -54.3,-11.7c-28.8,-5.2 -53,-9.5 -53.7,-9.5c-1,0 -1.3,3.6 -1.3,15.8l0.1,15.7l13.6,14.5c17,18.2 18.4,20.8 18.2,34.5l-0.1,10l14.4,23c18.9,30.3 20.7,34.1 23.3,49c1.3,7.3 1.8,8.3 5.4,11.6c3,2.7 32.1,17.5 35.1,17.8c0.3,0.1 0.6,-37.9 0.8,-84.2zm-62.4,64.5c0.7,-1.2 -3.4,-7.2 -5.1,-7.2c-1.1,0 -1,0.8 0.8,4c2.2,3.9 3.3,4.8 4.3,3.2zm-10.4,-17.2c0,-0.5 -1.2,-1 -2.7,-1c-2.2,0 -2.5,0.2 -1.3,1c2,1.3 4,1.3 4,0zm-63.2,-22c6.1,-1.7 8.2,-2.6 8.2,-3.9c0,-0.9 1.4,-2.5 3.1,-3.5c2.2,-1.3 2.8,-2.1 2,-2.9c-1.9,-1.9 -1.2,-6.9 1.9,-14.7c3.3,-8.5 3.7,-11.7 1.5,-14.6c-0.8,-1.1 -1.4,-4.1 -1.5,-7.1c0,-4.2 0.4,-5.5 2.2,-6.7c1.2,-0.9 3.5,-1.6 5,-1.6c2.3,0 2.7,-0.5 3,-3.2c0.3,-3.1 0.5,-3.3 4.8,-3.6c3.6,-0.2 4.8,-0.8 5.5,-2.5c0.6,-1.2 2.2,-2.4 3.7,-2.7l2.7,-0.5l-3.2,-3.5c-3,-3.2 -3.7,-3.5 -8,-3.2c-3.8,0.3 -4.7,0.7 -4.7,2.2c0,1.2 -2,2.9 -5.7,5c-7.7,4.3 -13,8.7 -19.7,16.4l-5.6,6.4l3.5,3.5c3.4,3.4 3.5,3.8 3.5,10.8c0,7.2 0,7.2 -4.3,11.4c-2.4,2.2 -8.5,6.2 -13.5,8.8c-5.1,2.7 -9.2,4.9 -9.2,5.1c0,0.2 1.7,1.6 3.7,3.2c3.4,2.6 9.4,4.5 11.9,3.9c0.6,-0.2 4.8,-1.3 9.2,-2.5zm44.4,-7.3c0.3,-0.1 -0.9,-2 -2.7,-4.2l-3.4,-4l-3,3c-1.7,1.6 -3.1,3.6 -3.1,4.5c0,1.4 0.9,1.6 5.8,1.3c3.1,-0.3 6,-0.5 6.4,-0.6zm-68.8,-34.3c1,-0.4 1.6,-1.8 1.6,-3.5c0,-2.4 -0.4,-2.9 -2.5,-2.9c-2.2,0 -2.5,0.4 -2.5,3.5c0,3.5 0.5,4 3.4,2.9zm-9.2,-12.9c-0.3,-2.6 -0.9,-3.5 -2.3,-3.5c-1.5,0 -1.9,0.7 -1.9,3.5c0,3 0.3,3.5 2.3,3.5c2,0 2.3,-0.4 1.9,-3.5zm-10.2,-11c0,-2.8 -0.4,-3.5 -2,-3.5c-1.6,0 -2,0.7 -2,3.5c0,2.8 0.4,3.5 2,3.5c1.6,0 2,-0.7 2,-3.5zm-32.3,-9.6c4.1,-5.6 4.5,-5.9 8.5,-5.9l4.3,0l-0.3,-4.9c-0.4,-5.9 0.7,-8.4 8.8,-18.5c3.3,-4.1 5.6,-7.7 5.2,-8c-3,-1.8 -8.5,-1.7 -12.7,0.4c-9.4,4.6 -22,29.1 -20.1,39.3c0.4,2 1,3.7 1.4,3.6c0.4,0 2.6,-2.7 4.9,-6zm22.3,-0.9c0,-3.8 -0.2,-4 -3,-4c-2.7,0 -3,0.2 -2,1.9c0.5,1.1 1,2.9 1,4c0,1.4 0.6,2.1 2,2.1c1.7,0 2,-0.7 2,-4zm74,-7.9c0,-0.5 -1.1,-1.1 -2.5,-1.3c-1.7,-0.4 -2.5,-0.1 -2.5,0.8c0,0.8 1.1,1.4 2.5,1.4c1.4,0 2.5,-0.4 2.5,-0.9zm-10,-10.5c0,-0.2 -1.1,-0.6 -2.5,-0.8c-1.4,-0.3 -2.5,-0.1 -2.5,0.3c0,0.5 1.1,0.9 2.5,0.9c1.4,0 2.5,-0.2 2.5,-0.4zm-10,-10.5c0,-0.5 -1.1,-1.1 -2.5,-1.3c-1.7,-0.4 -2.5,-0.1 -2.5,0.8c0,0.8 1.1,1.4 2.5,1.4c1.4,0 2.5,-0.4 2.5,-0.9zm-10,-11.1c0,-0.5 -1.1,-1 -2.5,-1c-1.4,0 -2.5,0.5 -2.5,1c0,0.6 1.1,1 2.5,1c1.4,0 2.5,-0.4 2.5,-1z"/>
    <path id="svg_55" d="m957.77729,2305.40548l-0.2,-12.3l-0.3,10.8l-0.4,10.8l-5.2,-0.3c-4.7,-0.3 -5.2,-0.5 -5.5,-2.8l-0.3,-2.6l-8.2,1.3c-4.5,0.6 -10.8,1.2 -13.9,1.2l-5.8,0.1l0,-15.5l0,-15.5l8.5,0c7.8,0 8.5,-0.2 8.5,-2c0,-1.8 -0.7,-2 -8.5,-2l-8.5,0l0,-5.5l0,-5.5l14,0c11.8,0 14,-0.2 14,-1.5c0,-1.2 1.3,-1.5 5.5,-1.5l5.4,0l0.4,10.3l0.3,10.2l0.2,-11.7l0.2,-11.8l5,0l5,0l0,29l0,29l-5,0l-5,0l-0.2,-12.2zm-18.8,-7c6.7,-1.2 7,-1.3 7,-4l0,-2.8l-8.5,0l-8.5,0l0,4c0,4.6 -0.2,4.5 10,2.8z"/>
    <path id="svg_56" d="m993.67729,2316.20548c-2.6,-0.7 -5.9,-2.4 -7.2,-3.6c-2.1,-2 -2.5,-3.3 -2.5,-8.4c0,-4.8 0.4,-6.4 2.2,-8.3l2.1,-2.3l-4.1,0l-4.2,0l0,-15l0,-15l5,0l5,0l0,4l0,4l4,0l4,0l0,-4l0,-4l5.5,0l5.5,0l0,13.5c0,11.3 0.2,13.5 1.5,13.5c1.3,0 1.5,-2.4 1.5,-15.6l0,-15.5l5.3,0.3l5.2,0.3l0.3,6.3l0.3,6.2l4.5,0l4.5,0l-0.3,5.3l-0.3,5.2l-4.2,0.3l-4.3,0.3l-0.1,6.2c-0.1,3.4 0,6.7 0.2,7.2c1,3.2 0.8,11.3 -0.3,13.4c-0.7,1.3 -2.9,3.3 -4.9,4.3c-4.8,2.5 -17.8,3.2 -24.2,1.4zm14.3,-10.7l3.3,-1.2l-2.4,-1.3c-3,-1.6 -5.9,-1.7 -9.6,-0.3l-2.8,1.1l3,1.4c3.8,1.6 4.4,1.7 8.5,0.3z"/>
    <path id="svg_57" d="m852.97729,2306.10548l0,-5.5l11,0l11,0l0,-3.5l0,-3.5l-8,0l-8.1,0l0.3,-13.7l0.3,-13.8l5.3,-0.3l5.2,-0.3l0,8.5l0,8.5l15.8,0.3l15.7,0.3l0.3,5.3l0.3,5.2l-8,0l-8.1,0l0,3.5l0,3.4l11.3,0.3l11.2,0.3l0.3,5.3l0.3,5.2l-28,0l-28.1,0l0,-5.5z"/>
    <path id="svg_58" d="m1057.17729,2293.40548c-1.6,-1.6 -1.5,-8.3 0.2,-9.7c1,-0.8 24.7,-1 87.7,-0.9l86.4,0.3l0,5.5l0,5.5l-86.5,0.3c-66.5,0.2 -86.9,-0.1 -87.8,-1z"/>
    <path id="svg_59" d="m1161.97729,2214.10548c-11.1,-3.1 -18.5,-10.3 -23.1,-22.4c-3,-7.8 -3.8,-26.8 -1.5,-36.5c3.3,-13.9 10.3,-23.2 21.5,-28.5c5.1,-2.4 6.6,-2.6 18.1,-2.6c15,0.1 21.7,2.2 28.5,9c4.8,4.7 8.5,13.3 8.5,19.5l0,4l-8.3,0l-8.4,0l-2.9,-5.7c-2.3,-4.6 -3.8,-6.2 -7.6,-8.1c-17.3,-8.9 -34.5,7.5 -32.5,30.8c1.5,18 13.9,28.9 27.9,24.6c6.8,-2 10.7,-5.2 13.4,-11c4.1,-8.7 4.2,-8.6 -10.1,-8.6l-12.5,0l0,-7.5l0,-7.5l21,0l21,0l0,25l0,25l-6.5,0c-6.4,0 -6.6,-0.1 -7.1,-2.9l-0.6,-2.9l-3.5,2.4c-5.1,3.4 -9.5,4.5 -20.3,5c-6.6,0.3 -11.2,-0.1 -15,-1.1z"/>
    <path id="svg_60" d="m852.97729,2169.50548l0,-44.1l24.8,0.4c23.6,0.3 24.9,0.4 29.5,2.7c3,1.5 5.8,3.9 7.5,6.4c2.3,3.5 2.7,5.3 3,13.1c0.3,8.1 0.1,9.6 -2.1,13.6l-2.4,4.5l2.5,1.9c4.1,3.1 6.2,9.1 6.2,18.2c0,10.5 -3.2,17.3 -10.2,22c-6.5,4.4 -13.7,5.4 -38.1,5.4l-20.7,0l0,-44.1zm41.4,27c5.1,-1.4 9.6,-6.1 9.6,-10.1c0,-8 -5.7,-10.7 -22.2,-10.8l-11.8,0l0,11l0,11l10.3,0c5.6,0 12,-0.5 14.1,-1.1zm0.2,-38.4c4.7,-2 6.8,-6.7 4.7,-10.8c-2.2,-4.3 -6.7,-5.7 -18.8,-5.7l-10.5,0l0,9l0,9l10.5,0c7,0 11.7,-0.5 14.1,-1.5z"/>
    <path id="svg_61" d="m939.97729,2209.80548c0,-3.5 3.3,-12.7 28.2,-78.9l1.9,-5.3l9.3,0l9.3,0l14.7,40.8c8,22.4 14.6,42.2 14.6,44l0,3.3l-9.2,-0.3l-9.2,-0.3l-4,-12.3l-4.1,-12.3l-12.8,0.3l-12.9,0.3l-2.9,8c-1.6,4.4 -3.6,9.9 -4.5,12.3l-1.6,4.2l-8.4,0l-8.4,0l0,-3.8zm42.9,-44.9c-1.6,-4.9 -3.2,-9.5 -3.5,-10.3c-0.5,-1.3 -7.4,15.6 -7.4,18.1c0,0.5 3.1,0.9 6.9,0.9l7,0l-3,-8.7z"/>
    <path id="svg_62" d="m1039.97729,2169.60548l0,-44l9.4,0l9.4,0l17.1,27.7l17.1,27.7l0,-27.7l0,-27.7l8.5,0l8.5,0l-0.2,43.8l-0.3,43.7l-8.3,0.3c-5,0.2 -8.9,-0.2 -9.7,-0.8c-0.7,-0.6 -8.7,-12.8 -17.6,-27.1l-16.4,-26.1l-0.5,26.8l-0.5,26.9l-8.2,0.3l-8.3,0.3l0,-44.1z"/>
    <path id="svg_63" d="m976.67729,2085.50548c-10.3,-2.4 -19.9,-10.5 -24.3,-20.5c-3.3,-7.4 -4.8,-18.1 -4.1,-28.9c1.1,-15.8 7.1,-28.2 17,-34.8c7.9,-5.4 11.6,-6.2 26.2,-6.1c11.2,0 13.8,0.3 18.9,2.4c12.5,4.9 20.6,16.3 22.6,32c3.8,28.3 -7.3,50 -28.2,55.6c-5.8,1.5 -22.1,1.7 -28.1,0.3zm19.8,-16c12.4,-3.1 21.3,-20.2 18.4,-35.6c-4.4,-24.1 -31.5,-30.5 -43.6,-10.4c-6.3,10.4 -6.7,22.1 -1.1,33.1c3.4,6.9 7.9,10.8 14.6,12.6c6,1.6 6.4,1.6 11.7,0.3z"/>
    <path id="svg_64" d="m852.97729,2040.60548l0,-44.1l9.7,0.3l9.6,0.3l16.6,26.9l16.6,27l0.5,-27l0.5,-26.9l8.3,-0.3l8.2,-0.3l0,44.1l0,44l-8.8,0c-7.2,0 -9.2,-0.3 -10.4,-1.7c-0.8,-1 -8.6,-13.3 -17.4,-27.3l-15.9,-25.5l-0.5,27l-0.5,27l-8.2,0.3l-8.3,0.3l0,-44.1z"/>
    <path id="svg_65" d="m1059.47729,2083.40548c-0.3,-0.7 -0.4,-20.4 -0.3,-43.8l0.3,-42.5l26,0c26,0 26,0 31.6,2.6c8.6,4.1 11.9,10.3 11.9,22.4c0,7.7 -1.4,12.6 -4.6,16.5c-1.4,1.6 -2.1,3 -1.6,3c2.2,0 4,7 4.6,17.5c0.7,10.9 2,16.5 3.8,16.5c0.5,0 0.8,1.9 0.6,4.3l-0.3,4.2l-9.6,0.3c-7.9,0.2 -9.8,0 -10.2,-1.2c-0.4,-0.9 -0.9,-6.8 -1.3,-13.3c-0.4,-6.9 -1.3,-13 -2.1,-14.6c-2.2,-4.4 -6.7,-5.7 -19.7,-5.7l-11.6,0l-0.2,17.3l-0.3,17.2l-8.3,0.3c-6,0.2 -8.4,-0.1 -8.7,-1zm46.6,-52.1c5.8,-3.9 6.4,-10.5 1.3,-15.2c-3.2,-2.9 -6.3,-3.5 -19.5,-3.5l-10.9,0l0,10.5l0,10.5l12.9,0c11.7,0 13.1,-0.2 16.2,-2.3z"/>
    <path id="svg_66" d="m1150.97729,2081.00548c0,-3.3 27.9,-80 30.3,-83.1c0.6,-0.9 3.9,-1.3 9.7,-1.3l8.7,0l14.7,40.3c9.1,25 14.6,41.6 14.6,44l0,3.7l-8.9,0l-8.9,0l-4.2,-12.5l-4.2,-12.5l-12.8,0l-12.8,0l-4.5,12.3l-4.4,12.2l-8.7,0.3l-8.6,0.3l0,-3.7zm45.7,-37.6c-0.3,-0.7 -1.8,-5 -3.3,-9.5c-1.6,-4.6 -3.1,-8.3 -3.4,-8.3c-0.5,0 -7,17 -7,18.4c0,0.3 3.2,0.6 7.1,0.6c5.3,0 6.9,-0.3 6.6,-1.2z"/>
    <path id="svg_67" d="m1251.97729,2040.60548l0,-44l32.5,0l32.5,0l0,8.5l0,8.5l-24,0l-24,0l0,9l0,9l22,0l22,0l0,8l0,8l-22,0l-22,0l0,10.5l0,10.5l24.5,0l24.6,0l-0.3,7.8l-0.3,7.7l-32.7,0.3l-32.8,0.2l0,-44z"/>
   </g>
   <g transform="matrix(0.945835, 0, 0, 1.00938, -489.57, -1814.51)" id="svg_68" fill="#ffffff">
    <path id="svg_69" d="m-60.02271,2146.60548l0,-540l960,0l960,0l0,540l0,540l-960,0l-960,0l0,-540zm833.7,169c1,-2 1.2,-33.5 1,-154.7l-0.2,-152.2l-2.2,-2.3c-1.9,-1.9 -9.6,-3.5 -58.5,-12.5c-55.6,-10.1 -56.3,-10.3 -58.8,-8.4c-2.5,1.8 -2.5,2 -2.8,18.8l-0.2,16.9l-15.1,-15.2c-9.2,-9.2 -17.1,-16.3 -20.3,-18.1c-4.6,-2.5 -6,-2.8 -14.7,-2.8c-9,0 -9.9,0.2 -17.1,3.7c-13.5,6.8 -30,26.2 -37.1,43.8c-4.1,10.5 -4.4,17.7 -1,26.6c0.4,1.1 -0.5,0.9 -3.8,-0.6c-9.2,-4.1 -15.9,-1.7 -15.9,5.8c0,4.2 0,4.2 9.4,18.3c8.7,13.2 21,28.5 24.8,30.7c2.4,1.4 2.8,2.1 2.1,4.2c-1.2,4 -0.7,9.4 1.3,13.5c2.5,5.3 10.5,13.1 19.4,18.9c4.1,2.7 8,5.6 8.5,6.5c2.8,4.4 4.8,11.8 6.5,23.4c1.1,7.1 2.9,16.1 4.2,20c1.9,6.1 3.2,8.1 8.3,13.3c7.7,7.8 18.5,15.3 30.8,21.5l9.7,4.9l0,27c0,26.7 0,26.9 2.3,29.6c2.3,2.6 4.6,3.1 55.3,12.5c29.1,5.3 55.1,9.6 57.9,9.6c4.2,-0.2 5.1,-0.6 6.2,-2.7zm191.3,-27c0,-25.3 -0.1,-26 -2,-26c-1.9,0 -2,0.7 -2,11.5l0,11.5l-3.5,0l-3.5,0l0,-10l0,-10l-2.5,0l-2.5,0l0.2,22.8c0.3,22.7 0.3,22.7 2.6,23c2.2,0.3 2.2,0.2 2.2,-10.2l0,-10.6l3.5,0l3.5,0l0,12c0,11.3 0.1,12 2,12c1.9,0 2,-0.7 2,-26zm49.7,23.3c4,-1.8 5.1,-3.2 5.9,-7c2.1,-10.6 -21.3,-15.7 -30.8,-6.6c-3.6,3.5 -3.8,8 -0.3,11.3c5.1,4.8 17.4,5.9 25.2,2.3zm-108.9,-5.5c-0.3,-2.2 -0.7,-2.3 -11.5,-2.6l-11.3,-0.3l0,-6.4l0,-6.5l8.1,0c7.8,0 8,-0.1 7.7,-2.2c-0.3,-2.3 -0.6,-2.3 -16,-2.6l-15.8,-0.3l0,-8.5c0,-8.3 -0.1,-8.5 -2.2,-8.2c-2.2,0.3 -2.3,0.8 -2.6,11.1l-0.3,10.7l8.1,0l8,0l0,6.5l0,6.5l-11,0l-11,0l0,2.5l0,2.5l25.1,0l25,0l-0.3,-2.2zm34.8,-0.1c4.9,-1 6,-1.6 6.2,-3.4c0.4,-2.7 0.9,-2.7 -9.3,-0.8c-12.3,2.2 -11.5,2.6 -11.5,-6l0,-7.5l8.5,0l8.5,0l0,-10l0,-10l-11,0l-11,0l0,2.5c0,2.5 0.1,2.5 8.5,2.5l8.5,0l0,5l0,5l-8.5,0l-8.5,0l0,12.6l0,12.6l6.9,-0.7c3.7,-0.4 9.5,-1.2 12.7,-1.8zm79.4,-19.6l0,-6l4.3,-0.3c3.5,-0.2 4.3,-0.7 4.5,-2.5c0.3,-2.1 -0.1,-2.3 -4.2,-2.3l-4.5,0l-0.3,-6.2c-0.3,-5.7 -0.5,-6.3 -2.5,-6.6c-2.3,-0.3 -2.3,-0.3 -2.3,14.7l0,15.1l2.5,0c2.4,0 2.5,-0.3 2.5,-5.9zm208.5,1.9l0,-2.5l-83.6,-0.3c-73.5,-0.2 -83.8,0 -84.9,1.3c-1,1.2 -1,1.8 0,3c1.1,1.3 11.4,1.5 84.9,1.3l83.6,-0.3l0,-2.5zm-222.5,-10l0,-12l-2.5,0c-2.2,0 -2.5,0.4 -2.5,4l0,4l-7,0l-7,0l0,-4c0,-3.3 -0.3,-4 -2,-4c-1.9,0 -2,0.7 -2,12l0,12l11.5,0l11.5,0l0,-12zm177.2,-67.1c6.7,-1.5 11.5,-3.9 15.2,-7.8c3.2,-3.3 4.6,-3.9 4.6,-1.8c0,0.6 0.5,2.9 1.1,5c0.9,3.4 1.3,3.7 4.4,3.7l3.5,0l0,-22l0,-22l-18,0l-18,0l0,4.5l0,4.5l13.1,0l13,0l-0.6,4.8c-1.1,7.6 -4.8,14.7 -9.2,17.6c-11,7.1 -27.8,5.4 -34.6,-3.6c-4.3,-5.7 -5.9,-10.8 -6.4,-20.8c-0.9,-17 3.1,-27.3 13.1,-33.5c4.3,-2.6 5.8,-3 12.6,-3c10.8,0 16.4,3 20.4,10.8l2.9,5.7l5.4,0c2.9,0 5.3,-0.4 5.3,-1c0,-0.5 -1,-3.5 -2.1,-6.6c-4.7,-12.4 -15.4,-18.7 -31.9,-18.8c-8.2,-0.1 -10.3,0.3 -15.1,2.5c-15.4,7.3 -23.8,23.6 -22.6,44.4c1.1,19.6 10.3,32.8 25.7,36.9c6.8,1.8 11.3,1.9 18.2,0.5zm-285.5,-2c8.8,-1.5 15,-5.8 18.6,-12.8c5.9,-11.8 1.4,-25.5 -9.8,-29.5c-1.8,-0.7 -1.7,-0.9 1.2,-2.7c4.8,-3.1 7.6,-9.7 7.1,-16.9c-0.5,-7.6 -4,-12.9 -10.5,-16.1c-4.5,-2.3 -6,-2.4 -26.5,-2.7l-21.8,-0.4l0,41.1l0,41.1l17.7,0c9.7,0 20.5,-0.5 24,-1.1zm57.7,-3.1c0.9,-2.4 2.9,-7.9 4.5,-12.3l2.9,-8l15.9,-0.3l15.8,-0.2l4.1,12.2l4,12.3l6.3,0.3c4.9,0.2 6.2,0 5.9,-1c-0.3,-0.7 -6.9,-19.2 -14.8,-41l-14.4,-39.8l-6.2,0l-6.3,0l-1.9,5.3c-21.9,58.2 -28.2,75.2 -28.2,75.9c0,0.4 2.4,0.8 5.4,0.8l5.4,0l1.6,-4.2zm98.6,-27.9l0.5,-31.7l19.3,30.9c10.7,16.9 20,31.3 20.7,31.9c0.7,0.6 3.7,1 6.7,0.8l5.3,-0.3l0.3,-40.7l0.2,-40.8l-5.5,0l-5.5,0l-0.2,32.2l-0.3,32.1l-19.8,-32.1l-19.9,-32.2l-6.4,0l-6.4,0l0,41.1l0,41l5.3,-0.3l5.2,-0.3l0.5,-31.6zm-52.2,-96.3c16,-4.3 25.7,-16.7 28.2,-36.1c2.7,-20.9 -6.4,-39.2 -22.6,-45.5c-7.5,-3 -24.3,-3.3 -31.2,-0.7c-17.5,6.7 -27.7,27.4 -24.3,49.5c2.7,17.2 13.1,29.6 27.8,33.1c5.9,1.4 16.2,1.2 22.1,-0.3zm-134.8,-32.8l0.5,-31.8l18.9,30.3c10.4,16.6 19.6,31 20.4,32c1.1,1.2 3,1.7 7.4,1.7l5.8,0l0,-41.1l0,-41l-5.2,0.3l-5.3,0.3l-0.5,31.8l-0.5,31.8l-19.6,-31.8l-19.6,-31.8l-6.7,-0.3l-6.6,-0.3l0,41.1l0,41.1l5.3,-0.3l5.2,-0.3l0.5,-31.7zm206.8,14.5l0.2,-17.3l14.6,0c22.4,0 23.7,1 24.8,20.3c0.4,6.5 0.9,12.4 1.2,13.2c0.5,1.1 2.3,1.5 6.9,1.5c5.9,0 9.1,-1.3 6.8,-2.9c-2.2,-1.4 -3.1,-5.2 -3.8,-16.1c-0.8,-12.7 -2.1,-16.8 -6.4,-19.3l-2.9,-1.7l4.3,-4.2c6.1,-6.1 7.8,-13.5 5.4,-22.3c-1.7,-6.1 -4.7,-9.5 -10.8,-12.4c-5.5,-2.6 -5.9,-2.6 -28.6,-2.6l-23,0l-0.3,39.5c-0.1,21.7 0,40.1 0.3,40.8c0.3,0.9 2.1,1.2 5.7,1l5.3,-0.3l0.3,-17.2zm95.9,5l4.5,-12.3l15.8,0l15.8,0l4.2,12.5l4.2,12.5l5.9,0c3.2,0 5.9,-0.3 5.9,-0.7c0,-0.5 -6.6,-18.9 -14.6,-41l-14.7,-40.3l-5.7,0c-3.4,0 -6.1,0.5 -6.7,1.3c-0.9,1.2 -30.3,78.9 -30.3,80.1c0,0.4 2.5,0.6 5.6,0.4l5.7,-0.3l4.4,-12.2zm145.1,7.5l0.3,-4.8l-24.5,0l-24.6,0l0,-13.5l0,-13.5l22,0l22,0l0,-5l0,-5l-22,0l-22,0l0,-12l0,-12l24,0l24,0l0,-5.5l0,-5.5l-29.5,0l-29.5,0l0,41l0,41l29.8,-0.2l29.7,-0.3l0.3,-4.7z"/>
    <path id="svg_70" d="m762.47729,2315.60548c-2.2,-0.4 -7.2,-1.3 -11.2,-2l-7.2,-1.2l-20.6,-37.9c-11.4,-20.9 -20.5,-38.2 -20.2,-38.5c0.2,-0.2 7.1,-2.7 15.2,-5.4c8.2,-2.7 15.8,-5.9 17.1,-7.1l2.2,-2.1l2.5,4.4c1.4,2.3 9.1,16.5 17.1,31.5l14.6,27.2l0,14.5c0,18 -0.2,18.4 -9.5,16.6z"/>
    <path id="svg_71" d="m733.87729,2310.20548c-0.2,-0.2 -14.6,-2.9 -31.9,-6.1c-38.7,-6.9 -45.3,-8.3 -46.2,-9.8c-1,-1.6 -1,-52.7 0,-52.7c0.4,0 3.9,1.1 7.7,2.4c10,3.4 17.5,5.6 19.4,5.6c2.4,0 19.8,6.3 25.6,9.3c4.4,2.2 5.5,3.5 8.9,9.8c2.1,4.1 7,12.9 10.7,19.7c3.8,6.7 6.9,12.5 6.9,12.8c0,0.2 1.1,2.2 2.5,4.4c1.4,2.2 2.5,4.2 2.5,4.5c0,0.6 -5.5,0.7 -6.1,0.1z"/>
    <path id="svg_72" d="m684.77729,2203.40548c-12.4,-22.7 -17,-30.4 -18.5,-30.6c-1.2,-0.2 -3.8,1.2 -6.5,3.5c-2.4,2.1 -6.9,5.2 -10.1,6.8c-5.4,2.8 -5.7,3.3 -6.7,8c-1.1,5.4 -4.3,11.5 -6,11.5c-1.5,0 -1.2,-1.1 1,-4.5c1.1,-1.6 2.5,-5.5 3.1,-8.5c1.1,-5.4 1.2,-5.5 7,-8.3c3.3,-1.6 7.6,-4.4 9.6,-6.3c2.1,-2 5.4,-3.9 7.7,-4.4c17.4,-3.9 27.6,-11 26.1,-18c-1,-4.7 -5.1,-6.3 -12.5,-5c-14.1,2.6 -47.5,13.8 -54.5,18.4c-1.3,0.8 -5,5.9 -8.1,11.3c-3.4,5.8 -6,9.1 -6.2,8.2c-0.3,-1.9 8.5,-17.5 11.5,-20.1c1,-1 4.3,-2.9 7.3,-4.3c3,-1.4 4.6,-2.3 3.5,-2c-4.5,1.4 -11.5,1.8 -11.5,0.6c0,-0.6 1.1,-1.1 2.4,-1.1c3.8,0 15.5,-3.9 23.1,-7.8c5.5,-2.7 8.8,-3.7 15.2,-4.3c20.8,-1.9 33.6,-10.7 30.7,-21.1c-1.5,-5.2 -4.2,-6 -17.4,-5.4c-16.8,0.8 -30.3,3.5 -51.5,10.3c-16.2,5.2 -19.4,8 -22.4,19.1c-1.4,5 -3.6,5.8 -2.6,1c0.3,-1.8 1.8,-5.8 3.3,-8.8c2.5,-5.1 3.3,-5.8 10.2,-9.2c6.5,-3.3 7.1,-3.8 4.4,-3.8c-2,0 -4.8,-1.3 -7.9,-3.6l-4.7,-3.6l-5.4,5.3c-7.8,7.7 -7.8,5.2 0.1,-3.6c5.6,-6.2 8.4,-8.4 15.8,-12.2c5,-2.6 11,-6.6 13.4,-8.8c3.7,-3.6 4.3,-4.7 4.3,-8.3c0,-5.2 -3.7,-9.9 -8.5,-10.8c-4.3,-0.8 -15.8,2.6 -23.5,6.8c-8.2,4.6 -18.6,12.4 -26.7,20.2c-4.1,3.9 -7.3,6.3 -7.3,5.4c0,-1.4 10.5,-12.1 16.1,-16.4c1.5,-1.1 2.9,-2.9 3.3,-4.1c0.8,-2.6 7.6,-13.2 9.9,-15.5c1.8,-1.8 4.7,-1.4 4.7,0.6c0,0.7 -1.4,3.1 -3.1,5.4c-4.1,5.5 -3,6.5 1.5,1.6c5.4,-5.9 4.3,-12.5 -1.8,-11c-2.9,0.7 -10.6,11 -12.7,16.8c-1,2.9 -1.6,3.5 -2.6,2.6c-0.7,-0.6 -1.3,-1.8 -1.3,-2.7c0,-2.5 4.7,-11.9 8.6,-17.2c4.2,-5.8 4.2,-8.9 0,-10.4c-2.6,-0.9 -3.1,-0.7 -6.7,3.5c-2.2,2.5 -5.1,7 -6.7,10c-1.5,3 -2.8,5.7 -3,5.9c-0.1,0.3 -0.7,0 -1.3,-0.6c-1.7,-1.7 0.6,-7.7 6.2,-16.4c2.7,-4.1 4.9,-8 4.9,-8.6c0,-1.5 -3.4,-4.3 -5.3,-4.3c-2.2,0 -9.3,8.5 -12.3,14.9c-1.8,3.8 -2.9,5 -3.6,4.3c-1.4,-1.4 1.2,-8.4 5.5,-14.7c5.5,-8 5.8,-8.7 4.3,-11c-0.7,-1.1 -2.5,-2.1 -3.9,-2.3c-2.2,-0.3 -3.3,0.7 -7,5.6c-2.4,3.3 -4.9,7.4 -5.6,9.1c-0.8,1.7 -1.7,3.1 -2.1,3.1c-0.4,0 -1.7,-2.2 -2.9,-4.9c-4.8,-11.2 -1.4,-25.4 10,-42.2c5.8,-8.6 14.6,-11.8 24.4,-9c5.9,1.6 9.9,-2.1 7,-6.5c-1,-1.6 -3.1,-2.6 -7.1,-3.4c-4,-0.8 -5.3,-1.5 -4.3,-2.1c2.4,-1.5 5,-1 12.1,2.3c6.6,3 6.9,3 8.8,1.3c2.7,-2.4 2.5,-4.1 -0.6,-7c-3.7,-3.4 -2,-3.1 3.8,0.6c4.2,2.7 5.3,3 7.3,2.1c1.4,-0.7 2.5,-2.1 2.7,-3.7l0.3,-2.5l3.9,2.6l3.9,2.7l-3.4,1.4l-3.3,1.4l3.7,3.6l3.6,3.7l3.5,-1.6c3.2,-1.6 3.5,-1.6 5,0.1c2.2,2.4 2,2.8 -1.4,3.6c-3.6,0.8 -3.8,2.4 -0.7,5.2c3.5,3.2 4.3,3.4 8,1.8c3.1,-1.3 3.6,-1.3 4.8,0.1c1,1.3 1,1.7 -0.2,2.5c-0.8,0.5 -1.9,0.9 -2.6,0.9c-2.6,0 -2.3,2.4 0.7,5.5c3.2,3.3 3.3,3.3 6.6,1.8c2.7,-1.3 3.6,-1.4 4.9,-0.3c2.2,1.9 1.9,2.8 -1.5,3.5c-3.9,0.9 -3.8,2.7 0.4,5.8c3,2.3 3.7,2.5 6.4,1.5c2.4,-0.9 3.4,-0.9 4.6,0.1c2.3,1.9 2,2.5 -1.6,3.9l-3.3,1.2l3.6,3.6c3.6,3.5 3.8,3.6 7.2,2.3l3.6,-1.3l4.8,5.3c9.1,10 12.4,20.3 9,28.1l-1.5,3.5l0.5,-4.1c1,-7.8 -4,-18.1 -8.3,-17.2c-3.6,0.7 -4,3.4 -0.9,7.7c2.6,3.8 2.7,4.6 2.2,10.4c-0.6,5.9 -5.4,23.3 -6.2,22.5c-0.2,-0.2 0.5,-3.3 1.6,-6.8c1.1,-3.5 2.2,-8.9 2.5,-12c0.5,-4.7 0.2,-6.3 -2.3,-11c-2.4,-4.8 -3.2,-5.5 -6.1,-5.8c-4.6,-0.5 -5.2,2 -1.9,7.9c4.1,7.1 3.3,15.4 -2.7,28.4c-3.1,6.8 -3,6.5 -1,6.5c2.4,0 0.8,1.7 -7.8,8.1c-4.8,3.5 -7.2,5.9 -6.1,5.9c1,0 3.6,-1.2 5.7,-2.6c3.2,-2.2 4.3,-2.5 5.7,-1.5c1,0.6 2.7,1.1 3.6,1.1c1.5,-0.1 1.4,-0.4 -0.6,-2.1c-1.4,-1.1 -2,-2.3 -1.5,-2.8c0.5,-0.4 3.5,-3.2 6.7,-6.1l5.8,-5.4l6.2,6.4c3.4,3.6 8.4,7.7 11,9.2c2.7,1.6 5.2,3.9 5.7,5.3c1.5,3.9 1.2,9.3 -0.6,12.5c-2.2,3.6 -1.3,6.5 1.5,5c2.7,-1.4 2.7,-1.4 5.2,2.6c2.4,3.9 2.5,3.5 -3.3,7.1c-5.3,3.2 -4.2,6.2 10.9,31.6c7.5,12.6 14.2,23.1 15,23.4c0.7,0.3 3.1,-1.1 5.3,-3.1c2.2,-2 4.4,-3.6 4.9,-3.6c0.7,0 6.3,8.4 8.7,13.1c0.4,0.8 -6.4,9.9 -7.4,9.9c-0.4,0 -2,-2.4 -3.5,-5.4l-2.9,-5.5l-6.6,-0.6c-14.2,-1.5 -12,0.6 -24.5,-23.2c-6.3,-12.1 -11.5,-20.9 -12,-20.4c-0.9,0.9 19.2,40.9 21.8,43.5c0.8,0.8 5,1.6 10.5,2l9,0.8l2.6,5c1.4,2.8 2.2,5.4 1.7,5.8c-0.8,0.7 -27.3,10 -28.4,10c-0.4,0 -8.1,-13.6 -17.1,-30.2zm-34,-50.4c2.8,-1 5.2,-2.1 5.2,-2.6c0,-1.4 -2.4,-0.8 -8,2.3c-3,1.6 -4.8,2.8 -4,2.5c0.8,-0.3 3.9,-1.3 6.8,-2.2zm5.5,-47.2c3.3,-5.7 6.7,-16.5 6.7,-21.7c0,-8.6 -5.1,-14.2 -9.9,-10.8c-2.7,1.8 -2.6,4.3 0,8.8c2.6,4.4 2.2,8.3 -2.1,19.3c-1.6,4.1 -2.7,7.9 -2.5,8.3c1.1,1.6 6.1,-0.9 7.8,-3.9zm-40.9,-25.7c-0.4,-0.8 1.4,-4.3 4.2,-8.2c10.1,-14.3 26.9,-27.6 30.8,-24.4c2.3,2 2.1,2.3 -3.1,5.1c-5.7,3 -16.9,13.3 -22.9,21.2c-4.8,6.1 -5.1,6.8 -3.1,6.8c0.7,0 2.1,-1.4 3.1,-3.1c3.6,-6 17.9,-19.5 24.9,-23.4l6.9,-3.8l-3.5,-3.5l-3.5,-3.4l-6.3,3.3c-8,4.3 -16.7,12.3 -24.1,22.2c-5.7,7.7 -7.4,12.7 -4.3,12.7c0.9,0 1.2,-0.6 0.9,-1.5zm-1.1,-13.7c6.8,-9.6 17,-19.2 24.2,-23c3.6,-1.8 6.5,-3.8 6.5,-4.4c0,-0.5 -1.3,-2.3 -3,-3.9c-3.5,-3.3 -4.2,-3.1 -15.3,4.2c-7.9,5.2 -21.6,21 -23.9,27.3c-1.1,3 1,6 4.1,6c2.4,0 3.6,-1 7.4,-6.2zm-9.8,-11.2c7.4,-9.8 17.3,-18.9 24.5,-22.6c3.3,-1.7 6,-3.3 6,-3.7c0,-1.4 -5.4,-6.3 -7,-6.3c-2.7,0 -13.2,6.8 -18.9,12.3c-6.4,6.2 -17.1,20.2 -17.1,22.5c0,2.2 3,5.2 5.1,5.2c1.1,0 4.1,-3 7.4,-7.4zm-10.7,-9.2c7.9,-11.1 22.1,-23.6 29.3,-25.9c2.7,-0.9 2.4,-2.7 -1,-5.9l-3,-2.8l-4.6,2.2c-8.3,4 -16.5,11.1 -23.7,20.4c-3.9,5 -7.4,10.1 -7.9,11.4c-1.3,3.4 0.5,6.2 4.1,6.2c2.3,0 3.6,-1 6.8,-5.6zm-14.3,-6.2c0.6,-0.4 3,-3.4 5.5,-6.7c2.4,-3.3 6.4,-8.1 8.8,-10.7c4.4,-4.7 14.6,-11.9 19,-13.2c2.8,-0.9 2.8,-1.4 -0.9,-5.6l-3,-3.5l-6.2,3.3c-8.3,4.2 -16.2,11.4 -23.7,21.3c-6.5,8.7 -7.9,12.1 -6,14.4c1.3,1.6 4.8,2 6.5,0.7z"/>
    <path id="svg_73" d="m651.97729,2106.40548c0,-0.2 1.1,-3.4 2.5,-7.3c3,-8.6 3.1,-13.3 0.4,-18.7c-2.3,-4.4 -1.5,-6.5 2,-5.3c3.2,1 4.7,7.3 3.2,13.8c-1.1,5.2 -6.5,17.7 -7.6,17.7c-0.3,0 -0.5,-0.1 -0.5,-0.2z"/>
    <path id="svg_74" d="m605.27729,2069.10548c-1.6,-4.3 17.8,-25.9 28,-31c4.9,-2.6 5.9,-2.8 6.7,-1.5c1.4,2.2 1.4,2.2 -4.3,5.7c-7.8,4.7 -12.9,9.5 -20.8,19.4c-3.9,4.9 -7.6,8.9 -8.1,8.9c-0.5,0 -1.1,-0.7 -1.5,-1.5z"/>
    <path id="svg_75" d="m594.97729,2057.70548c0,-2.7 10.5,-16.6 16.7,-22.1c2.8,-2.6 7.8,-6 11,-7.8c5.7,-3 6.1,-3.1 7.6,-1.4c1.4,1.6 1.1,2 -4.6,5.2c-6.8,3.9 -17.2,13.9 -23.2,22.3c-4,5.7 -7.5,7.4 -7.5,3.8z"/>
    <path id="svg_76" d="m585.27729,2048.00548c-1.5,-4 17.8,-25.6 27.5,-30.8c5.1,-2.7 5.4,-2.7 7.2,-1.1c1.9,1.7 1.9,1.8 -1.8,3.8c-9.2,4.9 -22.5,17.6 -28,27c-1.8,3 -3.9,3.5 -4.9,1.1z"/>
    <path id="svg_77" d="m574.97729,2036.30548c0,-3.2 12.3,-19.1 18.6,-24c2.9,-2.3 7.3,-5.3 9.8,-6.6c3.7,-2.1 4.7,-2.3 6,-1.2c2.3,1.9 2.1,2.4 -3.1,5.1c-6.2,3.2 -17.1,13.6 -23.5,22.2c-5.2,7 -7.8,8.5 -7.8,4.5z"/>
    <path id="svg_78" d="m720.67729,2198.90548c-5,-8 -25.7,-43.2 -25.7,-43.7c0,-0.3 1.9,-1.8 4.1,-3.3l4.2,-2.8l1.6,2.4c0.9,1.3 7.3,11.7 14.3,23.2l12.7,20.8l-4,3.5c-2.1,2 -4.1,3.6 -4.4,3.6c-0.3,0 -1.5,-1.7 -2.8,-3.7zm-3.9,-25.5c-2.4,-4 -5.1,-7.4 -6,-7.6c-0.8,-0.2 -2.6,0.6 -3.9,1.7l-2.4,1.9l1.9,3.4c1.1,1.8 3.5,5.7 5.3,8.7l3.5,5.4l3,-3.1l3.1,-3l-4.5,-7.4z"/>
    <path id="svg_79" d="m711.67729,2177.00548c-3.5,-5.9 -4,-8.4 -1.7,-8.4c0.5,0 2.5,2.7 4.6,6.1c3.1,5.1 3.4,6.3 2.3,7.4c-1.2,1.2 -2,0.4 -5.2,-5.1z"/>
    <path id="svg_80" d="m760.97729,2183.70548c-17.8,-7.8 -29.6,-14 -32.3,-16.8c-2.1,-2.3 -3.1,-4.8 -4.2,-10.9c-2.7,-15 -4.4,-18.6 -24.3,-50.3c-14.3,-23 -15.2,-24.7 -14.2,-27.4c0.5,-1.7 1,-5.5 1,-8.6c0,-8.8 -3,-13.8 -18.3,-30.1l-13.6,-14.5l-0.1,-18.6c0,-16.1 0.2,-18.8 1.6,-19.3c0.8,-0.3 26.4,3.9 56.7,9.4c47.8,8.7 55.4,10.3 57,12.2c1.6,1.9 1.7,7.3 1.6,90.4c-0.2,62.8 -0.5,88.4 -1.3,88.3c-0.6,0 -4.9,-1.7 -9.6,-3.8z"/>
    <path id="svg_81" d="m662.47729,2103.10548c0.4,-1.1 1.9,-5.1 3.3,-9c3.1,-8.8 2.9,-18.4 -0.5,-23.1c-2.2,-3.1 -2.1,-4.4 0.3,-4.4c1.4,0 4.1,4.6 5.5,9.3c1.7,5.8 -3.4,24.3 -7.7,27.7c-1.6,1.4 -1.7,1.3 -0.9,-0.5z"/>
    <path id="svg_82" d="m575.67729,2089.30548c-1.6,-2.4 -1.6,-3 -0.2,-6.2c1.8,-4.6 9.3,-15.2 11,-15.9c0.8,-0.3 1.8,0.1 2.4,0.7c0.7,0.9 -0.4,3.4 -4,8.7c-2.7,4.1 -4.9,7.9 -4.9,8.4c-0.1,0.6 -0.6,2.4 -1.3,4l-1.3,2.9l-1.7,-2.6z"/>
    <path id="svg_83" d="m676.47729,2087.10548c0.4,-1.1 1.1,-4.6 1.7,-7.8c0.9,-5.3 0.8,-6.2 -1.6,-11c-1.4,-3 -2.2,-5.5 -1.6,-6.1c0.9,-0.9 4.3,5 5.3,9.5c0.7,2.7 -1.5,12.9 -3.4,15.8c-0.9,1.3 -0.9,1.3 -0.4,-0.4z"/>
    <path id="svg_84" d="m565.57729,2078.70548c-1.7,-1.9 -1.7,-2.1 0.3,-6.6c3,-6.9 8.9,-14.5 11.2,-14.5c2.8,0 2.3,2.4 -1.6,7.9c-1.9,2.6 -4.5,7.2 -5.8,10c-2.2,5.1 -2.3,5.2 -4.1,3.2z"/>
    <path id="svg_85" d="m555.57729,2068.80548c-1.6,-1.8 -1.6,-2.3 -0.2,-5.6c2.6,-6.3 9.6,-15.6 11.7,-15.6c2.5,0 1.9,3.5 -1.2,7.8c-1.9,2.6 -4.5,7.1 -5.9,10c-2.5,5.2 -2.6,5.3 -4.4,3.4z"/>
    <path id="svg_86" d="m661.07729,2042.20548c-1,-1.2 -0.8,-1.7 1,-2.6c1.7,-1 2.4,-0.9 3.8,0.4c1.4,1.5 1.4,1.8 0.1,2.6c-2.1,1.4 -3.6,1.2 -4.9,-0.4z"/>
    <path id="svg_87" d="m650.97729,2031.10548c-1.5,-1.8 -1.3,-2 1.6,-2.9c2.8,-0.8 5.6,2.1 3.3,3.5c-2,1.3 -3.5,1.1 -4.9,-0.6z"/>
    <path id="svg_88" d="m640.47729,2020.60548c-1.7,-1.8 -1.6,-1.9 0.9,-2.6c1.6,-0.4 3.2,-0.1 4.2,0.7c1.4,1.2 1.4,1.4 -0.2,2.6c-2.3,1.7 -2.8,1.7 -4.9,-0.7z"/>
    <path id="svg_89" d="m630.97729,2010.10548c-1.5,-1.8 -1.3,-2 1.6,-2.9c2.8,-0.8 5.6,2.1 3.3,3.5c-2,1.3 -3.5,1.1 -4.9,-0.6z"/>
    <path id="svg_90" d="m570.47729,2002.50548c2.5,-2.5 3.6,-2.9 8.1,-2.9c5.8,0 10.4,1.6 10.4,3.6c0,2.2 -1.8,2.5 -7.9,1.3c-4.5,-1 -6.9,-1 -9.7,-0.1l-3.7,1.1l2.8,-3z"/>
    <path id="svg_91" d="m620.37729,1999.20548c-1.8,-1.4 -1.8,-1.5 0.6,-2.4c1.9,-0.7 2.9,-0.6 4.3,0.6c1.3,1.2 1.5,1.7 0.5,2.4c-1.9,1.1 -3.2,1 -5.4,-0.6z"/>
    <path id="svg_92" d="m592.47729,1995.50548c-1.6,-1 -4.5,-2.2 -6.3,-2.5c-2.4,-0.5 -3,-0.9 -2,-1.5c3.8,-2.5 14.8,0.9 14.8,4.6c0,2 -2.8,1.8 -6.5,-0.6z"/>
    <path id="svg_93" d="m602.57729,1989.80548l-3.9,-2.7l3.6,-0.3c3.8,-0.3 9,2.3 8.4,4.2c-0.7,2 -4.1,1.5 -8.1,-1.2z"/>
    <path id="svg_94" d="m996.17729,2308.10548c-7.6,-3.3 -4.1,-8.7 6.1,-9.3c7.9,-0.5 12.7,1.5 12.7,5.4c0,4.7 -11.4,7.1 -18.8,3.9z"/>
    <path id="svg_95" d="m986.97729,2282.60548l0,-3l7,0l7,0l0,3l0,3l-7,0l-7,0l0,-3z"/>
    <path id="svg_96" d="m866.97729,2186.60548l0,-14l14.8,0c12.4,0 15.4,0.3 19,2c10.9,4.9 8.6,21.6 -3.4,24.9c-2.1,0.6 -9.9,1.1 -17.1,1.1l-13.3,0l0,-14z"/>
    <path id="svg_97" d="m866.97729,2150.60548l0,-12l13.5,0c15.4,0 19.5,1.1 21.9,5.9c2,3.8 2,7.2 0.1,11.7c-2.2,5.3 -5.9,6.4 -22,6.4l-13.5,0l0,-12z"/>
    <path id="svg_98" d="m969.17729,2168.40548c1.6,-4.6 4.5,-12.3 6.3,-17.3c3.9,-10.5 2.8,-11.7 10.5,11.3l4.9,14.2l-12.4,0l-12.4,0l3.1,-8.2z"/>
    <path id="svg_99" d="m981.77729,2072.20548c-10.7,-2.9 -17.5,-13 -18.5,-27.2c-1.4,-20.3 8.1,-34.8 24,-36.8c19.8,-2.5 33.6,13.4 31.3,36c-2.3,22.4 -16.8,33.4 -36.8,28z"/>
    <path id="svg_100" d="m1073.97729,2023.00548l0,-13.6l16.3,0.4c17.6,0.3 20.1,1 22.5,6.4c1.7,3.7 1.5,12.5 -0.4,15.2c-3.1,4.5 -6.2,5.2 -22.9,5.2l-15.5,0l0,-13.6z"/>
    <path id="svg_101" d="m1177.97729,2046.70548c0,-1 10.8,-31 11.7,-32.4c0.4,-0.7 12.2,31 12.3,33.1c0,0.1 -5.4,0.2 -12,0.2c-6.6,0 -12,-0.4 -12,-0.9z"/>
   </g>
  </g>
 </g>
</svg>